<?xml version="1.0" encoding="UTF-8" standalone="no"?>
<!-- Generator: Adobe Illustrator 24.1.2, SVG Export Plug-In . SVG Version: 6.00 Build 0)  -->

<svg
   version="1.1"
   id="Layer_1"
   x="0px"
   y="0px"
   viewBox="0 0 1200 1200"
   style="enable-background:new 0 0 1200 1200;"
   xml:space="preserve"
   sodipodi:docname="Kotlin Mascot 2D 1.svg"
   inkscape:version="1.1.1 (3bf5ae0d25, 2021-09-20)"
   xmlns:inkscape="http://www.inkscape.org/namespaces/inkscape"
   xmlns:sodipodi="http://sodipodi.sourceforge.net/DTD/sodipodi-0.dtd"
   xmlns="http://www.w3.org/2000/svg"
   xmlns:svg="http://www.w3.org/2000/svg"><defs
   id="defs33" /><sodipodi:namedview
   id="namedview31"
   pagecolor="#ffffff"
   bordercolor="#999999"
   borderopacity="1"
   inkscape:pageshadow="0"
   inkscape:pageopacity="0"
   inkscape:pagecheckerboard="0"
   showgrid="false"
   inkscape:snap-page="true"
   inkscape:zoom="0.090417"
   inkscape:cx="-2173.3"
   inkscape:cy="1166.8"
   inkscape:window-width="1920"
   inkscape:window-height="1017"
   inkscape:window-x="-8"
   inkscape:window-y="-8"
   inkscape:window-maximized="1"
   inkscape:current-layer="Layer_1" />
<style
   type="text/css"
   id="style2">
	.st0{fill:#FFFFFF;}
	.st1{fill:#7F52FF;}
</style>
<rect
   style="fill:#606060;fill-opacity:1;stroke:none;stroke-width:4;stroke-linecap:round;stroke-opacity:1;stop-color:#000000"
   id="rect1628"
   width="1200"
   height="1200"
   x="0"
   y="0" /><g
   id="g28">
	<g
   id="g10">
		<path
   class="st0"
   d="M894.4,684.2c16.6-8.5,28-25.8,28-45.8V205c0-24.2-27.5-38-46.9-23.6l-247,183.7l-247-183.7    c-19.4-14.4-46.9-0.6-46.9,23.6v375.4c-77.5,31.2-138,93-177.1,181.9l47.1,20.7l0,0l0,0c30.4-69.3,74-118.2,130-146.4v1.7    c0,28.4,23,51.4,51.4,51.4h154.1c-2.9,23.4-12,74.5-39.6,129.6c-20.4,40.8-87.7,67.3-112,74.1l20.1,63c7.8-2.3,31.5-9.9,58.2-23.5    c45.3-23,76.6-51.3,93-84.1c35.2-70.4,44.6-134.5,47-159.2H630c14.6,13.6,68.2,65.8,93.1,125.2c20.7,49.4,26.5,116.1,28,144.6    l66.7-0.2c-1.5-30.7-8.1-108.9-33.7-170c-16-38.2-40.7-73-63.1-99.7h108.3c40.6,49.6,97.8,86.4,169.6,108.6l5.5-17.7l4.2-13.6    l5.5-17.8l0,0l0,0C965.8,734.3,925.9,712.6,894.4,684.2z M791.6,631H486c-12.2,0-22-9.9-22-22V425.3c0-12.2,9.9-22,22-22h396.8    c12.2,0,22,9.9,22,22V609c0,12.2-9.9,22-22,22h-32.7H791.6z"
   id="path4" />
		<path
   class="st0"
   d="M600.7,424.2c-50.2,0-91.1,40.9-91.1,91.1s40.9,91.1,91.1,91.1c50.2,0,91.1-40.9,91.1-91.1    S650.9,424.2,600.7,424.2z M600.7,585.9c-38.9,0-70.5-31.6-70.5-70.5c0-38.9,31.6-70.5,70.5-70.5c38.9,0,70.5,31.6,70.5,70.5    C671.2,554.3,639.6,585.9,600.7,585.9z"
   id="path6" />
		<path
   class="st0"
   d="M888.8,515.4c0-50.2-40.9-91.1-91.1-91.1c-50.2,0-91.1,40.9-91.1,91.1c0,44.3,31.8,81.4,73.9,89.5    c5.6,1.1,11.4,1.7,17.3,1.7c12.7,0,24.8-2.6,35.8-7.4C866,585.2,888.8,552.9,888.8,515.4z M826,579.9c-8.7,3.8-18.3,6-28.4,6    c-8.9,0-17.4-1.7-25.2-4.7c-26.5-10.2-45.3-35.9-45.3-65.9c0-38.9,31.6-70.5,70.5-70.5c38.9,0,70.5,31.6,70.5,70.5    C868.2,544.2,850.8,569,826,579.9z"
   id="path8" />
	</g>
	<g
   id="g26">
		<path
   d="M1079,760.5c-1.3-5.5-6.9-8.9-12.4-7.6l-38.1,9.1l1.9-6c0.2-0.8-0.2-1.6-1-1.8l-15.4-4.8l0,0l-5.5,17.8l-4.2,13.6    l-5.5,17.7l0,0l15.4,4.8c0.8,0.2,1.6-0.2,1.8-1l1.8-5.7l26.1,29.3c2,2.3,4.9,3.5,7.7,3.5c2.4,0,4.9-0.9,6.8-2.6    c4.2-3.8,4.6-10.3,0.9-14.5l-26.7-30.1l38.8-9.2C1076.9,771.5,1080.3,766,1079,760.5z"
   id="path12" />
		<path
   d="M797.6,444.8c-38.9,0-70.5,31.6-70.5,70.5c0,30,18.9,55.7,45.3,65.9c7.8,3,16.3,4.7,25.2,4.7c10.1,0,19.7-2.1,28.4-6    c24.8-10.9,42.1-35.8,42.1-64.6C868.2,476.5,836.5,444.8,797.6,444.8z"
   id="path14" />
		<circle
   cx="600.7"
   cy="515.4"
   r="70.5"
   id="circle16" />
		<path
   d="M882.8,403.2H486c-12.2,0-22,9.9-22,22V609c0,12.2,9.9,22,22,22h396.8c12.2,0,22-9.9,22-22V425.3    C904.9,413.1,895,403.2,882.8,403.2z M600.7,606.5c-50.2,0-91.1-40.9-91.1-91.1s40.9-91.1,91.1-91.1c50.2,0,91.1,40.9,91.1,91.1    S650.9,606.5,600.7,606.5z M833.5,599.1c-11,4.7-23.1,7.4-35.8,7.4c-5.9,0-11.7-0.6-17.3-1.7c-42-8.1-73.9-45.1-73.9-89.5    c0-50.2,40.9-91.1,91.1-91.1c50.2,0,91.1,40.9,91.1,91.1C888.8,552.9,866,585.2,833.5,599.1z"
   id="path18" />
		<path
   d="M812.6,986l1.5,0c2.8,0,4.5-2.5,4.3-5.4l-0.6-21.1v0l-66.7,0.2h0l0.6,22.9c0.4,2.1,2.2,3.5,4.3,3.5l1.9,0    c-10.6,7.7-17.9,19.7-19.3,33.4c-0.3,2.6,1.8,4.9,4.4,4.9l84.8-0.2c2.6,0,4.7-2.3,4.4-4.9C830.6,1005.5,823.2,993.6,812.6,986z"
   id="path20" />
		<path
   d="M388.5,893.5L388.5,893.5l-20.9,4c-2.8,0.3-4.7,3-3.8,5.7l0.3,1.1c-10.5-7.8-24.1-11.2-37.7-8.4c-2.6,0.5-4.1,3.2-3.3,5.7    l25.7,80.8c0.8,2.5,3.6,3.7,6,2.7c12.7-5.5,21.8-16.1,25.9-28.6l0.7,2.1c0.6,2,2.6,3.3,4.7,3l22.6-4.5l-0.1-0.4L388.5,893.5z"
   id="path22" />
		<path
   d="M157.5,762.3L157.5,762.3l-6.5,14.8c-0.3,0.7,0,1.6,0.8,1.9l5.5,2.4L125.1,804c-4.6,3.3-5.8,9.7-2.5,14.3    c3.3,4.7,9.7,5.8,14.3,2.5l32.9-23.1l4.8,39.6c0.6,5.2,5.1,9.1,10.2,9.1c0.4,0,0.8,0,1.2-0.1c5.6-0.7,9.7-5.8,9-11.4l-4.7-38.8    l5.8,2.5c0.7,0.3,1.6,0,1.9-0.8l6.5-14.8l0,0L157.5,762.3z"
   id="path24" />
	</g>
</g>
</svg>
